<svg id="visual" viewBox="0 0 900 600" width="900" height="600" xmlns="http://www.w3.org/2000/svg" xmlns:xlink="http://www.w3.org/1999/xlink" version="1.1"><rect x="0" y="0" width="900" height="600" fill="#001220"></rect><defs><linearGradient id="grad1_0" x1="33.3%" y1="0%" x2="100%" y2="100%"><stop offset="20%" stop-color="#001220" stop-opacity="1"></stop><stop offset="80%" stop-color="#001220" stop-opacity="1"></stop></linearGradient></defs><defs><linearGradient id="grad2_0" x1="0%" y1="0%" x2="66.7%" y2="100%"><stop offset="20%" stop-color="#001220" stop-opacity="1"></stop><stop offset="80%" stop-color="#001220" stop-opacity="1"></stop></linearGradient></defs><g transform="translate(900, 0)"><path d="M0 486.7C-55.1 449.1 -110.2 411.4 -157.7 380.6C-205.1 349.9 -245 326 -297.7 297.7C-350.4 269.4 -416 236.6 -449.7 186.3C-483.4 135.9 -485.1 68 -486.7 0L0 0Z" fill="#FBAE3C"></path></g><g transform="translate(0, 600)"><path d="M0 -486.7C54.4 -458.8 108.8 -430.9 170.7 -412.1C232.5 -393.2 301.8 -383.3 344.2 -344.2C386.6 -305.1 402 -236.7 421.3 -174.5C440.6 -112.3 463.7 -56.1 486.7 0L0 0Z" fill="#FBAE3C"></path></g></svg>